<svg xmlns="http://www.w3.org/2000/svg" width="112.457" height="27.123" viewBox="0 0 112.457 27.123"><defs><style>.a{fill:#fff;}</style></defs><g transform="translate(-125.177 -154.5)"><path class="a" d="M403.867,154.5h-9.546l-10.184,11.222V154.5h-7.89v27.123h7.89V176.23l4.011-4.416,6.717,9.809h9l-10.59-15.459Z" transform="translate(-166.233)"/><path class="a" d="M320.16,168.8h0v-8.88l-4.93-5.423H294.517v27.123h7.89v-7.4h5.667l3.947,7.4h8.387l-4.393-8.252Zm-7.89-1.97h-9.863V161.9h9.863Z" transform="translate(-112.12 0)"/><path class="a" d="M217.717,154.5l-4.93,5.423v21.7h7.89V175.2h9.863v6.42h7.876v-21.7L233.5,154.5Zm2.96,13.81v-6.42h9.863v6.42Z" transform="translate(-58.006 0)"/><path class="a" d="M149.942,181.822,125.177,154.8v19.433l6.907,7.589Z" transform="translate(0 -0.199)"/><path class="a" d="M145.478,168.313,157.858,154.8H133.1Z" transform="translate(-5.244 -0.199)"/></g></svg>